<?xml version="1.0" standalone="no"?>
<!DOCTYPE svg PUBLIC "-//W3C//DTD SVG 20010904//EN"
 "http://www.w3.org/TR/2001/REC-SVG-20010904/DTD/svg10.dtd">
<svg version="1.0" xmlns="http://www.w3.org/2000/svg"
 width="904.000000pt" height="945.000000pt" viewBox="0 0 904.000000 945.000000"
 preserveAspectRatio="xMidYMid meet">

<g transform="translate(0.000000,945.000000) scale(0.100000,-0.100000)"
fill="#000000" stroke="none">
<path d="M0 4725 l0 -4725 4520 0 4520 0 0 4725 0 4725 -4520 0 -4520 0 0
-4725z m3917 2971 c0 -8 -6 -12 -14 -9 -7 3 -10 9 -7 14 8 14 21 11 21 -5z
m-17 -55 c0 -11 -4 -23 -10 -26 -6 -4 -10 5 -10 19 0 14 5 26 10 26 6 0 10 -9
10 -19z m105 9 c3 -5 25 -10 48 -10 41 0 77 -23 77 -50 0 -19 -24 -22 -36 -5
-7 10 -31 21 -53 25 -38 7 -39 6 -45 -24 -21 -99 -24 -110 -25 -88 0 13 -11
32 -22 41 l-22 17 27 28 c14 16 23 33 20 38 -8 12 3 38 15 38 5 0 13 -4 16
-10z m-65 -20 c0 -5 -4 -10 -10 -10 -5 0 -10 5 -10 10 0 6 5 10 10 10 6 0 10
-4 10 -10z m300 -93 c0 -7 -9 -18 -20 -25 -20 -12 -25 -6 -14 22 7 19 34 21
34 3z m-132 -119 c56 -12 73 -30 20 -22 -40 7 -88 -10 -88 -31 0 -8 5 -15 10
-15 6 0 10 -10 10 -21 0 -19 -4 -21 -39 -16 -34 4 -40 2 -50 -19 -10 -22 -8
-24 31 -35 23 -6 58 -9 78 -6 19 3 30 3 23 0 -7 -2 -9 -11 -7 -18 9 -24 -69
-29 -143 -11 -35 9 -41 23 -20 45 10 11 9 13 -5 8 -23 -8 -48 2 -48 18 0 8 -7
20 -15 29 -14 14 -14 17 5 36 25 25 32 25 47 1 6 -10 21 -21 34 -24 20 -5 21
-3 16 37 -10 70 0 73 141 44z m212 -28 c0 -5 -7 -10 -15 -10 -8 0 -15 5 -15
10 0 6 7 10 15 10 8 0 15 -4 15 -10z m-57 -14 c5 -13 -3 -104 -21 -235 -4 -30
-12 -56 -18 -58 -17 -6 -24 84 -9 121 7 17 15 44 19 60 7 28 6 28 -23 23 -27
-6 -31 -4 -31 14 0 11 5 30 11 42 9 16 9 22 0 25 -20 7 -3 18 32 20 22 2 37
-3 40 -12z m227 -6 c0 -11 -6 -20 -14 -20 -9 0 -12 7 -9 20 3 11 9 20 14 20 5
0 9 -9 9 -20z m-346 3 c-16 -3 -20 -10 -16 -33 3 -21 -1 -31 -16 -39 -17 -9
-21 -7 -27 16 -5 21 -2 32 15 45 12 10 32 17 44 17 21 -2 21 -2 0 -6z m199
-100 c-5 -33 -23 -36 -23 -4 0 15 20 45 26 38 1 -1 -1 -17 -3 -34z m167 -9 c0
-16 -16 -19 -25 -4 -8 13 4 32 16 25 5 -4 9 -13 9 -21z m-562 -142 c24 -2 50
2 58 9 9 7 14 8 14 1 0 -6 -13 -20 -28 -31 -33 -23 -82 -37 -82 -24 0 6 -11
22 -25 37 -27 29 -34 81 -12 89 7 2 16 -12 22 -37 10 -39 12 -41 53 -44z m384
32 c-4 -39 -22 -84 -34 -84 -6 0 -7 8 -3 18 4 9 10 36 12 60 6 48 30 54 25 6z
m-95 -99 c8 -22 -6 -33 -17 -15 -13 20 -12 30 0 30 6 0 13 -7 17 -15z m144
-288 c-1 -12 -15 -9 -19 4 -3 6 1 10 8 8 6 -3 11 -8 11 -12z m-63 -22 c2 -11
14 -31 27 -45 28 -30 46 -130 23 -130 -7 0 -23 -3 -35 -6 -20 -6 -21 -4 -16
55 4 42 2 61 -6 61 -6 0 -11 13 -11 29 0 17 -4 33 -10 36 -17 10 -11 27 7 23
10 -2 19 -12 21 -23z m572 -100 c0 -18 -4 -22 -20 -18 -10 3 -25 12 -32 20
-10 12 -9 18 7 29 23 17 45 2 45 -31z m-1271 -74 c-16 -5 -33 15 -24 30 6 9
12 7 22 -7 9 -13 10 -20 2 -23z m813 -389 c0 -28 -3 -56 -8 -64 -5 -7 -9 -19
-9 -25 0 -7 -3 -13 -7 -13 -5 0 -13 0 -19 0 -5 0 -7 4 -4 10 7 12 -12 50 -26
50 -6 0 -17 -7 -26 -15 -19 -20 -33 -10 -33 22 0 28 35 73 55 73 7 0 20 9 30
20 28 30 47 6 47 -58z m-869 42 c10 -10 -12 -44 -28 -44 -12 0 -12 -4 2 -20
10 -11 25 -20 35 -20 23 0 31 -16 32 -64 1 -34 5 -42 22 -44 18 -3 20 1 16 28
-2 17 0 30 6 30 55 0 86 -80 50 -127 -13 -16 6 -25 37 -17 26 6 29 15 26 75
-3 46 19 65 77 68 7 1 11 5 7 10 -3 6 3 15 14 21 37 19 81 -27 81 -85 0 -13 7
-28 15 -33 10 -5 18 -27 20 -56 5 -51 20 -86 41 -99 21 -12 17 -55 -4 -62 -11
-3 -34 -24 -52 -46 -25 -32 -30 -43 -19 -49 10 -7 10 -11 0 -24 -8 -9 -9 -16
-3 -16 6 0 12 5 14 12 2 6 10 8 16 4 38 -23 -26 -64 -72 -46 -15 5 -29 10 -32
10 -9 0 -3 -20 12 -34 14 -15 13 -17 -11 -26 -32 -12 -45 -6 -45 21 0 10 -4
19 -10 19 -5 0 -10 5 -10 10 0 6 6 10 14 10 9 0 12 8 8 25 -2 14 -9 25 -16 25
-7 0 -7 3 2 8 9 7 8 14 -8 32 -18 21 -23 22 -44 10 -21 -11 -28 -10 -54 9 -17
11 -40 21 -51 21 -26 0 -27 8 -3 26 16 12 14 14 -14 25 -27 11 -32 18 -32 45
0 17 -4 43 -8 55 -4 13 -7 32 -5 42 1 10 -4 17 -13 17 -12 0 -16 -11 -16 -45
0 -38 -3 -45 -20 -45 -17 0 -20 7 -20 39 0 21 -3 52 -6 69 -6 28 -3 32 31 46
l38 16 -26 33 c-20 25 -31 31 -55 29 -19 -2 -32 2 -35 13 -4 8 -13 15 -20 15
-8 0 -20 7 -28 16 -10 13 -10 17 1 24 8 5 21 5 31 -1 10 -5 25 -9 34 -9 12 0
14 4 6 18 -7 13 -6 23 1 30 13 13 60 16 71 6z m-651 -186 c2 -20 0 -34 -4 -32
-4 3 -8 24 -7 47 1 47 6 41 11 -15z m1111 -332 c-19 -25 -33 -25 -33 -1 0 14
14 23 38 24 9 1 8 -6 -5 -23z m373 -451 c-18 -13 -90 -18 -109 -8 -21 12 11
23 66 23 56 -1 60 -2 43 -15z m-948 -847 c42 -135 100 -215 362 -498 120 -129
133 -145 201 -244 30 -44 104 -132 165 -195 61 -64 126 -138 145 -166 19 -27
46 -66 61 -85 14 -19 58 -98 97 -175 40 -77 96 -185 126 -240 30 -55 55 -112
55 -127 0 -16 5 -28 10 -28 6 0 10 -25 10 -55 0 -63 12 -75 57 -53 30 15 33
40 7 69 -17 19 -9 29 23 29 29 0 44 34 67 150 17 88 81 230 136 300 15 19 30
42 34 50 17 36 36 64 64 93 50 53 272 459 272 497 0 10 4 21 9 24 4 3 16 30
25 61 10 30 22 53 27 49 5 -3 9 6 9 19 0 14 6 30 14 36 13 11 13 7 5 -24 -7
-25 -7 -46 0 -66 9 -28 9 -41 -5 -91 -4 -13 -8 -65 -11 -117 -2 -52 -10 -121
-18 -153 -13 -57 -11 -98 6 -98 5 0 9 5 9 10 0 6 4 10 9 10 6 0 13 -20 17 -45
8 -59 34 -62 34 -5 0 22 5 40 10 40 11 0 12 -111 1 -149 l-6 -23 -13 24 c-18
33 -117 85 -177 93 l-51 7 -83 -91 c-104 -112 -149 -179 -201 -297 -22 -51
-51 -111 -64 -135 -13 -24 -29 -66 -36 -94 -7 -27 -25 -77 -40 -110 -16 -33
-30 -67 -32 -75 -3 -10 -30 -19 -79 -27 -100 -18 -221 -31 -236 -25 -7 2 -17
20 -24 40 -7 21 -39 102 -71 182 -113 278 -126 325 -81 302 10 -5 42 -15 71
-22 49 -11 74 -32 66 -55 -2 -6 14 -32 36 -59 22 -26 40 -53 40 -59 0 -6 3 -7
7 -4 3 4 12 -1 19 -11 21 -27 17 3 -6 45 -11 21 -20 43 -20 49 0 7 -15 34 -32
60 -18 27 -42 68 -52 92 -10 23 -23 42 -28 42 -4 0 -8 12 -8 28 0 36 -127 162
-164 162 -37 0 -78 -18 -104 -46 -39 -41 -53 -32 -101 67 -24 50 -59 119 -79
153 -19 33 -65 117 -100 186 -81 156 -124 222 -245 382 -117 154 -156 216
-187 290 -23 56 -23 58 -6 102 10 25 23 46 29 46 7 0 18 -19 25 -42z m854
-1360 c-9 -9 -12 -4 -11 23 0 32 1 33 11 11 8 -17 8 -26 0 -34z m58 -13 c0 -8
-7 -15 -15 -15 -8 0 -15 7 -15 15 0 8 7 15 15 15 8 0 15 -7 15 -15z m729 -328
c1 -54 -12 -73 -70 -102 -55 -29 -72 -26 -63 11 5 20 2 24 -15 24 -23 0 -29
-15 -8 -23 7 -4 6 -6 -4 -6 -9 -1 -19 6 -23 14 -3 8 -12 15 -20 15 -21 0 -33
49 -15 61 22 14 28 11 47 -21 18 -29 19 -29 42 -12 13 9 44 37 69 62 51 50 59
46 60 -23z m-204 -107 c3 -5 -1 -10 -9 -10 -9 0 -16 5 -16 10 0 6 4 10 9 10 6
0 13 -4 16 -10z m456 -212 c-7 -51 -23 -156 -36 -233 -28 -172 -48 -306 -80
-540 -13 -99 -29 -214 -35 -255 -5 -41 -17 -142 -26 -225 -16 -153 -26 -188
-42 -144 -19 50 -56 249 -82 434 -4 33 -11 67 -15 77 -4 11 0 18 12 22 23 7
53 56 53 87 0 15 -15 38 -40 60 -41 38 -52 75 -25 85 8 4 15 16 15 28 0 11 7
30 15 40 8 11 15 29 15 40 0 12 6 31 13 42 34 59 67 127 68 137 0 7 11 34 23
61 23 48 23 48 30 21 6 -25 9 -26 22 -13 19 19 44 136 44 208 0 95 45 199 73
171 8 -8 7 -36 -2 -103z m-274 -786 c19 -12 -1 -33 -33 -35 -23 -2 -30 2 -32
21 -3 18 1 22 25 22 15 0 33 -4 40 -8z"/>
<path d="M3600 5960 c0 -5 5 -10 10 -10 6 0 10 5 10 10 0 6 -4 10 -10 10 -5 0
-10 -4 -10 -10z"/>
<path d="M3660 5876 c0 -2 6 -9 14 -15 10 -9 15 -8 20 4 4 10 -1 15 -14 15
-11 0 -20 -2 -20 -4z"/>
<path d="M4620 2656 c0 -8 5 -18 10 -21 6 -3 10 3 10 14 0 12 -4 21 -10 21 -5
0 -10 -6 -10 -14z"/>
<path d="M4510 2570 c0 -16 5 -30 10 -30 6 0 10 14 10 30 0 17 -4 30 -10 30
-5 0 -10 -13 -10 -30z"/>
</g>
</svg>
